<?xml version="1.0" standalone="no"?>
<!DOCTYPE svg PUBLIC "-//W3C//DTD SVG 20010904//EN"
 "http://www.w3.org/TR/2001/REC-SVG-20010904/DTD/svg10.dtd">
<svg version="1.0" xmlns="http://www.w3.org/2000/svg"
 width="1080.000000pt" height="720.000000pt" viewBox="0 0 1080.000000 720.000000"
 preserveAspectRatio="xMidYMid meet">

<g transform="translate(0.000000,720.000000) scale(0.100000,-0.100000)"
fill="#000000" stroke="none">
<path d="M5650 7161 c-49 -9 -125 -39 -117 -47 3 -3 23 4 45 15 53 27 170 35
220 15 78 -32 201 -94 209 -106 4 -7 36 -37 71 -66 l62 -53 53 10 c52 11 81
10 93 -1 3 -4 12 -4 20 -1 9 3 14 0 12 -7 -2 -8 15 -12 53 -14 55 -2 89 -17
89 -39 0 -14 51 -79 57 -73 3 3 -6 19 -21 36 -14 17 -26 37 -26 45 0 22 -26
35 -81 41 -29 3 -59 10 -66 15 -6 6 -16 8 -21 5 -6 -3 -15 0 -21 8 -9 11 -22
11 -75 -1 l-64 -15 -35 34 c-95 89 -118 107 -183 138 -136 64 -186 75 -274 61z"/>
<path d="M5052 7120 c-23 -10 -57 -22 -76 -25 -43 -9 -76 -31 -117 -81 -31
-37 -37 -40 -64 -32 -57 16 -204 10 -255 -10 -8 -3 -40 -7 -71 -8 -39 -1 -77
-12 -130 -37 -41 -19 -91 -42 -113 -51 -21 -9 -76 -53 -122 -98 -72 -69 -84
-86 -84 -114 0 -18 -6 -37 -13 -41 -7 -4 -34 -36 -61 -70 -26 -34 -54 -64 -62
-67 -8 -3 -14 -10 -14 -16 0 -19 33 11 85 75 27 33 55 66 62 73 7 7 13 27 13
43 0 23 16 44 77 104 66 65 94 84 193 131 90 44 127 56 170 58 30 1 62 5 70 8
49 20 165 26 238 13 34 -5 42 -10 38 -23 -3 -10 9 1 26 23 59 73 84 93 129
105 24 6 63 20 87 31 57 25 106 24 169 -5 29 -14 67 -28 85 -32 51 -11 150 -5
167 10 9 7 23 16 31 19 13 5 13 6 0 6 -9 1 -25 -6 -37 -14 -23 -16 -111 -23
-153 -12 -14 4 -53 18 -88 32 -74 30 -122 31 -180 5z"/>
<path d="M5654 7052 c5 -9 -17 -100 -40 -160 -15 -41 -15 -46 2 -83 11 -21 22
-39 26 -39 10 0 -2 31 -20 53 -14 15 -13 25 8 90 12 39 29 86 36 104 11 27 11
32 -2 37 -8 3 -13 2 -10 -2z"/>
<path d="M5205 6980 c-21 -21 -42 -37 -46 -35 -4 3 -9 -1 -12 -9 -4 -9 0 -12
12 -9 21 5 110 93 95 93 -5 0 -27 -18 -49 -40z"/>
<path d="M5130 6889 c0 -5 4 -8 9 -4 6 3 20 -8 32 -25 13 -17 33 -37 46 -46
21 -13 26 -13 45 1 13 8 18 15 12 15 -5 0 -15 -5 -21 -11 -8 -8 -18 -6 -37 7
-14 11 -26 22 -26 27 0 11 -39 47 -50 47 -5 0 -10 -5 -10 -11z"/>
<path d="M4515 6860 c-16 -17 -16 -21 -1 -42 9 -12 16 -17 16 -11 0 7 -5 15
-11 19 -8 5 -4 13 11 24 13 10 18 20 13 23 -6 4 -18 -2 -28 -13z"/>
<path d="M6557 6831 c16 -18 34 -25 68 -27 31 -1 55 -10 69 -23 12 -12 29 -21
37 -21 16 0 72 -50 107 -94 12 -16 25 -27 28 -24 8 9 -106 128 -122 128 -8 0
-27 9 -43 21 -17 12 -47 22 -75 23 -27 2 -55 11 -69 22 l-22 18 22 -23z"/>
<path d="M6538 6803 c7 -3 16 -2 19 1 4 3 -2 6 -13 5 -11 0 -14 -3 -6 -6z"/>
<path d="M4510 6780 c39 -33 144 -104 136 -92 -7 12 48 27 64 17 5 -3 18 -1
27 4 13 8 1 10 -47 6 -62 -5 -66 -3 -120 33 -67 47 -94 61 -60 32z"/>
<path d="M6910 6633 c30 -6 75 -36 113 -76 15 -17 30 -27 33 -24 7 6 -41 54
-85 84 -18 13 -46 22 -60 22 l-26 -2 25 -4z"/>
<path d="M4620 6596 c-12 -33 -14 -209 -1 -202 4 3 6 43 4 90 -3 53 -1 92 7
106 6 12 9 24 6 27 -3 3 -10 -6 -16 -21z"/>
<path d="M6863 6572 c1 -42 3 -44 62 -77 33 -19 79 -37 103 -41 26 -4 59 -20
85 -40 23 -19 65 -41 92 -50 28 -9 78 -30 113 -45 34 -16 64 -29 66 -29 10 0
271 -145 274 -152 2 -4 8 -8 13 -8 5 0 40 -19 77 -42 320 -198 578 -403 847
-672 490 -492 852 -1075 1078 -1736 92 -272 158 -573 202 -920 22 -180 24
-223 21 -555 -4 -370 -11 -474 -56 -735 -20 -112 -27 -147 -69 -315 -57 -231
-137 -476 -205 -629 -8 -17 -33 -74 -56 -126 -48 -107 -112 -237 -165 -330
-37 -66 -41 -97 -5 -39 30 49 196 387 213 434 8 22 38 101 67 175 72 185 109
304 161 515 42 168 49 203 69 315 45 261 52 365 56 735 3 332 1 375 -21 555
-43 339 -109 647 -197 905 -35 104 -142 378 -188 480 -94 214 -279 526 -444
754 -184 253 -494 590 -701 761 -49 41 -97 81 -105 89 -72 70 -541 391 -570
391 -4 0 -10 3 -12 8 -1 4 -19 15 -38 26 -19 10 -73 39 -120 64 -142 76 -211
107 -281 128 -26 8 -71 32 -100 54 -32 24 -65 40 -81 40 -21 0 -149 57 -166
75 -3 3 -9 22 -13 42 l-7 38 1 -43z"/>
<path d="M4425 6578 c11 -15 25 -28 30 -28 16 0 63 -58 68 -83 4 -19 4 -18 6
5 1 30 -19 52 -104 118 -19 15 -19 15 0 -12z"/>
<path d="M4338 6583 c6 -2 18 -2 25 0 6 3 1 5 -13 5 -14 0 -19 -2 -12 -5z"/>
<path d="M4356 6561 c6 -6 25 -13 43 -16 18 -2 30 -1 27 2 -4 4 -14 8 -24 9
-9 1 -26 5 -37 9 -15 6 -17 5 -9 -4z"/>
<path d="M4080 6515 c-16 -19 -14 -116 3 -157 9 -21 19 -38 22 -38 3 0 -2 17
-11 38 -15 36 -20 107 -9 142 7 23 53 18 72 -9 8 -12 19 -21 26 -21 6 0 0 12
-14 26 -29 28 -73 38 -89 19z"/>
<path d="M4311 6470 c13 -23 40 -57 61 -75 20 -19 42 -43 48 -54 6 -12 17 -21
25 -21 9 0 -15 32 -52 71 -38 39 -71 79 -75 89 -4 10 -12 21 -19 25 -6 5 -1
-11 12 -35z"/>
<path d="M4480 6496 c0 -2 8 -10 18 -17 15 -13 16 -12 3 4 -13 16 -21 21 -21
13z"/>
<path d="M4687 6471 c-9 -16 -17 -37 -16 -48 0 -13 2 -14 6 -3 12 38 29 63 48
71 20 8 20 8 0 8 -13 1 -27 -11 -38 -28z"/>
<path d="M3736 6445 c-44 -19 -84 -39 -90 -45 -5 -5 -16 -10 -23 -10 -8 0 -56
-20 -109 -45 -52 -25 -96 -45 -98 -45 -7 0 -196 -106 -331 -185 -337 -199
-710 -499 -970 -781 -331 -359 -560 -690 -765 -1109 -64 -131 -79 -165 -130
-297 -11 -29 -25 -62 -30 -73 -19 -41 -98 -272 -119 -350 -12 -44 -28 -105
-37 -135 -26 -94 -84 -388 -94 -484 -6 -50 -16 -122 -23 -161 -7 -46 -11 -206
-11 -470 0 -423 9 -541 64 -837 78 -423 213 -824 403 -1197 49 -97 94 -186
101 -198 6 -13 14 -23 18 -23 5 0 -34 82 -85 183 -112 218 -154 311 -218 479
-123 324 -198 631 -251 1026 -20 149 -22 209 -22 567 0 264 4 424 11 470 7 39
17 111 23 161 10 96 68 390 94 484 9 30 25 91 37 135 23 85 100 309 124 362 8
17 15 35 15 39 0 4 9 26 19 48 10 23 38 84 61 136 349 794 998 1532 1753 1991
110 68 300 174 357 201 19 9 76 35 125 58 50 22 110 52 135 65 25 13 79 35
120 49 41 14 64 25 50 25 -14 0 -61 -16 -104 -34z"/>
<path d="M4483 6429 c-1 -23 -7 -47 -14 -55 -6 -8 -10 -17 -7 -19 16 -17 44
80 29 103 -4 6 -8 -7 -8 -29z"/>
<path d="M4179 6448 c9 -12 10 -26 2 -54 -6 -21 -9 -40 -6 -42 2 -2 9 15 15
38 10 37 9 45 -6 59 -17 15 -17 15 -5 -1z"/>
<path d="M3951 6393 c3 -17 -1 -32 -13 -45 -21 -21 -42 -67 -35 -75 4 -3 7 0
7 7 0 7 10 27 23 44 30 40 39 64 26 71 -5 4 -9 3 -8 -2z"/>
<path d="M4161 6314 c0 -11 3 -14 6 -6 3 7 2 16 -1 19 -3 4 -6 -2 -5 -13z"/>
<path d="M7159 6283 c-20 -59 -18 -70 18 -111 18 -20 33 -32 33 -25 0 7 -9 20
-20 30 -31 30 -39 63 -23 101 8 19 12 36 10 39 -3 2 -11 -13 -18 -34z"/>
<path d="M4100 6303 c0 -17 50 -73 63 -72 8 0 8 2 -1 6 -7 3 -24 21 -37 41
-14 20 -25 31 -25 25z"/>
<path d="M3906 6245 c25 -19 40 -19 24 0 -7 8 -20 15 -28 15 -13 0 -12 -3 4
-15z"/>
<path d="M4118 6216 c11 -23 1 -45 -42 -93 -24 -26 -25 -31 -10 -29 11 2 29
20 41 42 12 21 30 47 40 58 13 14 14 17 3 14 -8 -3 -21 2 -28 11 -12 14 -12
14 -4 -3z"/>
<path d="M3984 6153 c-9 -20 -28 -52 -42 -71 -25 -33 -38 -77 -20 -66 5 4 7
12 4 20 -3 8 -1 14 5 14 5 0 14 11 19 25 5 14 14 25 19 25 5 0 11 9 14 20 3
11 6 24 7 28 1 4 6 15 11 25 5 9 7 17 4 17 -3 0 -13 -17 -21 -37z"/>
<path d="M7221 6112 c-2 -30 30 -84 62 -102 33 -19 34 -22 29 -69 -2 -27 0
-51 4 -54 5 -3 7 15 5 40 -3 39 -1 45 13 40 26 -10 -1 24 -47 58 -23 17 -46
45 -53 65 -7 19 -13 29 -13 22z"/>
<path d="M3895 5978 c11 -6 31 -22 44 -35 12 -13 25 -22 28 -19 8 8 -60 66
-77 66 -11 -1 -9 -4 5 -12z"/>
<path d="M5435 5960 c-10 -11 -30 -20 -44 -20 -15 0 -51 -9 -81 -20 -59 -21
-74 -24 -67 -12 3 4 -20 8 -51 8 -32 1 -46 0 -32 -2 14 -2 41 -9 61 -14 28 -8
46 -6 89 10 30 11 65 20 78 20 13 0 37 11 54 25 16 14 25 25 20 25 -5 0 -17
-9 -27 -20z"/>
<path d="M7430 5925 c0 -5 16 -25 35 -44 19 -18 44 -59 56 -90 24 -64 42 -162
31 -171 -12 -9 -13 -31 -2 -45 6 -7 10 -17 9 -21 -1 -5 1 -22 6 -37 5 -18 3
-33 -4 -40 -6 -6 -11 -15 -11 -21 0 -5 6 -2 13 8 13 17 15 16 36 -19 36 -62
51 -105 51 -151 0 -23 4 -45 9 -48 5 -3 0 -29 -10 -57 -11 -28 -18 -54 -15
-57 3 -3 8 1 10 9 26 74 32 100 25 105 -5 3 -9 25 -9 48 0 47 -17 96 -54 155
-27 43 -47 111 -45 151 3 61 -4 116 -20 163 -11 31 -17 57 -15 60 2 2 -18 28
-46 58 -27 30 -49 50 -50 44z"/>
<path d="M5005 5899 c-44 -11 -96 -24 -115 -28 -63 -16 -155 -52 -170 -68 -14
-14 -12 -14 15 0 52 27 164 67 187 67 12 0 60 10 106 21 62 16 86 19 95 10 6
-6 15 -11 21 -11 5 0 1 7 -10 15 -23 18 -30 17 -129 -6z"/>
<path d="M3964 5890 c0 -13 4 -16 10 -10 7 7 7 13 0 20 -6 6 -10 3 -10 -10z"/>
<path d="M3954 5838 c-39 -41 -68 -91 -84 -143 -7 -22 -16 -45 -21 -50 -10
-14 -8 -55 3 -49 5 3 6 9 3 14 -13 22 70 185 122 238 12 13 17 22 10 22 -2 0
-17 -15 -33 -32z"/>
<path d="M4655 5759 c-11 -17 1 -21 15 -4 8 9 8 15 2 15 -6 0 -14 -5 -17 -11z"/>
<path d="M3499 5722 c-31 -37 -48 -133 -28 -162 7 -11 8 -4 3 23 -7 43 18 121
43 136 9 4 11 11 6 14 -5 3 -16 -2 -24 -11z"/>
<path d="M4608 5695 c-8 -19 -12 -35 -7 -35 5 0 11 11 15 25 3 14 14 30 23 35
14 8 14 9 1 10 -9 0 -23 -16 -32 -35z"/>
<path d="M4537 5578 c-26 -40 -65 -94 -89 -120 -24 -25 -54 -60 -68 -78 -14
-17 -32 -39 -41 -48 -38 -42 -125 -206 -106 -199 7 2 18 21 26 43 8 21 17 41
20 44 4 3 14 21 24 40 10 20 32 51 50 71 18 19 49 56 70 82 21 26 53 62 70 81
18 19 39 47 47 63 8 15 23 41 33 56 11 16 17 30 14 33 -2 3 -25 -28 -50 -68z"/>
<path d="M3480 5516 c8 -22 6 -28 -10 -38 -11 -7 -20 -19 -20 -26 0 -7 11 0
24 15 22 25 25 26 31 11 4 -10 12 -18 18 -18 6 0 1 10 -11 23 -12 13 -22 28
-22 35 0 6 -4 14 -10 17 -7 4 -7 -3 0 -19z"/>
<path d="M7517 5410 c-31 -33 -30 -20 -24 -215 1 -58 5 -79 15 -77 11 2 17
-11 12 -33 -1 -6 3 -6 10 1 8 8 7 18 -4 38 -12 24 -15 25 -19 9 -3 -10 -6 29
-6 87 -3 151 -3 152 18 174 19 22 34 46 29 46 -2 0 -16 -14 -31 -30z"/>
<path d="M3640 5401 c0 -5 5 -13 10 -16 6 -4 7 -12 4 -18 -5 -9 -4 -9 6 0 10
9 10 15 -4 28 -9 9 -16 12 -16 6z"/>
<path d="M3870 5165 c0 -12 40 -83 74 -130 20 -27 36 -43 36 -35 0 9 -9 23
-20 32 -10 10 -33 44 -50 78 -27 53 -40 71 -40 55z"/>
<path d="M4074 5122 c16 -17 32 -30 34 -27 3 2 13 0 23 -6 11 -6 19 -6 19 0 0
5 -12 14 -27 20 -16 6 -39 18 -53 28 -23 15 -22 14 4 -15z"/>
<path d="M3630 5125 c0 -2 13 -11 29 -22 48 -30 110 -84 188 -163 41 -41 73
-70 71 -63 -5 20 -179 193 -194 193 -1 0 -15 11 -29 24 -22 20 -65 41 -65 31z"/>
<path d="M4212 5088 c-10 -30 -10 -31 3 -14 13 17 21 46 12 46 -1 0 -8 -15
-15 -32z"/>
<path d="M4176 5045 c-9 -26 -7 -32 5 -12 6 10 9 21 6 23 -2 3 -7 -2 -11 -11z"/>
<path d="M4072 5033 c-12 -2 -27 -14 -34 -26 -6 -12 -18 -27 -27 -34 -10 -7
-11 -12 -4 -13 6 0 21 14 33 30 12 17 28 30 35 30 8 0 17 5 20 10 3 6 5 9 3 9
-2 -1 -13 -4 -26 -6z"/>
<path d="M4182 4953 c-12 -49 -24 -108 -28 -133 -7 -53 -33 -141 -45 -154 -12
-13 -12 -29 0 -21 13 7 48 119 55 175 4 25 16 82 27 128 11 46 19 86 16 88 -2
2 -13 -35 -25 -83z"/>
<path d="M6277 5003 c-4 -3 -28 -7 -54 -8 -27 -1 -77 -6 -113 -10 -36 -5 -74
-9 -84 -9 -11 -1 -21 -8 -24 -16 -4 -12 -3 -13 10 -2 9 7 20 12 24 10 5 -1 38
2 74 7 36 4 87 9 113 10 26 1 53 7 59 13 7 7 10 12 7 12 -3 0 -9 -3 -12 -7z"/>
<path d="M5950 4954 l-25 -15 25 7 c14 3 29 10 35 15 15 14 -7 10 -35 -7z"/>
<path d="M7466 4961 c-4 -5 3 -7 14 -4 23 6 26 13 6 13 -8 0 -17 -4 -20 -9z"/>
<path d="M7437 4943 c-4 -3 -7 -15 -7 -25 0 -10 -4 -18 -9 -18 -18 0 -31 -67
-35 -185 -3 -96 0 -137 15 -203 26 -107 27 -211 4 -279 -12 -36 -15 -68 -11
-105 10 -93 23 -149 36 -161 10 -10 11 -9 5 3 -10 17 -23 82 -31 158 -4 37 -1
69 11 105 23 68 22 172 -4 279 -15 67 -18 107 -15 206 4 109 8 130 31 173 23
45 28 70 10 52z"/>
<path d="M4887 4924 c-1 -1 -30 -4 -64 -6 -37 -3 -73 -13 -90 -24 -36 -24 -89
-45 -131 -51 -18 -3 -34 -9 -37 -13 -7 -11 87 8 99 20 6 6 16 10 23 10 8 0 26
9 42 21 33 25 81 32 224 33 71 1 97 3 75 8 -29 7 -134 8 -141 2z"/>
<path d="M5068 4893 c7 -3 16 -2 19 1 4 3 -2 6 -13 5 -11 0 -14 -3 -6 -6z"/>
<path d="M6810 4893 c0 -7 4 -14 9 -17 4 -3 11 -19 15 -36 5 -30 36 -72 36
-51 0 5 -4 12 -9 15 -5 3 -12 18 -16 33 -7 30 -35 74 -35 56z"/>
<path d="M3976 4848 c-41 -41 -42 -45 -36 -88 l7 -45 1 45 c2 38 8 51 44 87
23 24 39 43 34 43 -4 0 -26 -19 -50 -42z"/>
<path d="M4630 4786 c0 -3 26 -10 58 -16 31 -6 66 -16 77 -21 14 -7 36 -7 67
0 25 6 70 8 99 5 30 -3 72 -1 94 4 30 6 11 8 -75 7 -63 -1 -126 -5 -139 -10
-13 -4 -33 -3 -45 3 -37 18 -136 38 -136 28z"/>
<path d="M6870 4762 c0 -4 6 -16 14 -27 24 -35 65 -142 71 -185 3 -23 12 -70
19 -104 8 -34 17 -88 20 -121 4 -33 9 -87 12 -120 3 -33 9 -78 12 -100 4 -22
7 -56 6 -75 -6 -186 -15 -361 -20 -389 -3 -19 -7 -52 -10 -75 -4 -40 -5 -52
-20 -171 -9 -74 -6 -137 7 -150 7 -7 8 -1 4 17 -10 38 -10 63 -1 133 4 33 10
76 12 95 2 19 6 53 8 76 3 23 7 56 10 75 5 28 14 203 20 389 1 19 -2 53 -6 75
-3 22 -9 67 -12 100 -3 33 -8 87 -12 120 -3 33 -12 87 -20 121 -7 34 -16 81
-19 104 -5 40 -35 126 -56 160 -5 8 -13 25 -19 38 -9 22 -20 29 -20 14z"/>
<path d="M3840 4590 c-22 -22 -40 -45 -40 -51 0 -5 -4 -8 -9 -5 -9 6 0 -42 15
-78 4 -11 4 -17 -2 -14 -5 4 -10 -8 -11 -25 l-1 -32 14 33 c10 23 11 38 4 52
-19 35 -10 60 38 110 27 28 45 50 40 50 -4 0 -26 -18 -48 -40z"/>
<path d="M4072 4603 c-31 -45 -52 -134 -52 -225 0 -45 -5 -101 -9 -123 -5 -22
-13 -78 -16 -125 -9 -104 -13 -491 -6 -484 3 3 6 94 7 202 2 209 10 342 25
407 4 22 9 78 9 123 0 75 22 188 39 202 9 7 32 50 27 50 -3 0 -13 -12 -24 -27z"/>
<path d="M3925 4555 c-52 -55 -55 -67 -25 -100 10 -11 23 -36 29 -55 l11 -35
-6 40 c-4 24 -16 48 -31 63 l-26 24 44 42 c24 22 46 40 49 39 3 -1 7 7 7 18 1
10 1 18 0 18 -1 -1 -24 -25 -52 -54z"/>
<path d="M5469 4443 c6 -12 16 -25 21 -28 15 -9 12 -27 -2 -19 -10 6 -10 4 0
-7 6 -7 12 -30 12 -50 0 -20 7 -50 15 -65 8 -16 15 -22 15 -13 0 8 -4 19 -10
25 -5 5 -10 34 -11 65 -2 42 -8 62 -26 85 -17 20 -21 22 -14 7z"/>
<path d="M4645 4435 c-86 -23 -113 -33 -89 -34 12 -1 38 6 57 14 20 8 48 15
62 15 14 0 25 5 25 10 0 6 -1 10 -2 9 -2 0 -25 -7 -53 -14z"/>
<path d="M4720 4440 c0 -4 25 -10 56 -13 30 -3 62 -11 70 -18 8 -6 17 -9 20
-6 3 3 -3 10 -14 16 -25 13 -132 30 -132 21z"/>
<path d="M5069 4380 c19 -16 37 -27 40 -24 6 6 -50 53 -64 53 -5 0 5 -13 24
-29z"/>
<path d="M4447 4370 c-32 -16 -67 -30 -78 -30 -10 0 -19 -4 -19 -9 0 -6 13 -6
33 0 44 12 156 68 137 69 -9 0 -42 -13 -73 -30z"/>
<path d="M4848 4379 c9 -12 9 -24 0 -50 -13 -38 -31 -53 -68 -55 -47 -3 -119
-8 -117 -9 1 0 15 -11 32 -25 16 -14 23 -17 16 -7 -19 24 -12 28 48 29 29 1
54 5 57 10 9 13 36 9 58 -9 18 -16 18 -15 -1 8 -20 21 -21 30 -13 59 8 28 7
37 -7 50 -15 14 -16 13 -5 -1z"/>
<path d="M4668 4361 c8 -5 11 -18 7 -37 -5 -28 -5 -28 5 -5 12 28 7 51 -12 51
-10 0 -10 -2 0 -9z"/>
<path d="M4539 4340 c-19 -10 -42 -26 -50 -36 -9 -12 3 -8 35 11 40 23 52 26
67 17 27 -17 31 -15 12 8 -20 23 -17 23 -64 0z"/>
<path d="M5121 4334 c0 -11 3 -14 6 -6 3 7 2 16 -1 19 -3 4 -6 -2 -5 -13z"/>
<path d="M4355 4285 c11 -8 26 -13 33 -10 18 7 92 -13 92 -24 0 -5 8 -12 18
-16 24 -11 122 -22 117 -14 -3 3 -27 9 -54 11 -27 3 -57 12 -66 21 -18 19 -91
41 -105 32 -5 -3 -20 -1 -32 5 -22 11 -22 11 -3 -5z"/>
<path d="M3630 4280 c-13 -9 -13 -10 0 -10 9 0 24 -19 34 -44 16 -39 59 -76
73 -62 2 2 -5 7 -17 11 -13 4 -31 28 -46 61 -13 30 -26 54 -27 54 -1 0 -9 -5
-17 -10z"/>
<path d="M5120 4270 c-6 -11 -7 -20 -2 -20 6 0 12 9 15 20 3 11 3 20 1 20 -2
0 -8 -9 -14 -20z"/>
<path d="M5150 4270 c-7 -14 -7 -20 0 -20 5 0 10 6 10 14 0 8 6 17 13 19 9 4
9 6 0 6 -7 1 -17 -8 -23 -19z"/>
<path d="M3595 4263 c-4 -10 -10 -47 -12 -83 -2 -36 -11 -100 -18 -143 -20
-106 -20 -258 -1 -332 24 -90 60 -188 84 -229 12 -21 22 -40 22 -44 0 -14 92
-141 134 -185 27 -29 73 -61 117 -82 39 -19 78 -44 86 -55 8 -12 31 -67 50
-123 54 -161 132 -305 228 -422 53 -65 119 -155 132 -180 6 -11 23 -63 38
-115 26 -89 28 -110 32 -330 2 -129 8 -260 12 -290 5 -30 9 -107 10 -170 1
-72 11 -163 27 -250 25 -135 37 -197 54 -300 5 -30 16 -81 25 -113 8 -31 20
-99 25 -150 6 -50 18 -119 26 -151 15 -57 49 -136 59 -136 6 0 -6 30 -21 55
-19 31 -42 130 -54 232 -5 51 -17 119 -25 150 -9 32 -20 83 -25 113 -17 103
-29 165 -54 300 -16 87 -26 178 -27 250 -1 63 -5 140 -9 170 -5 30 -10 161
-13 290 -3 199 -7 246 -25 305 -11 39 -25 88 -31 111 -7 25 -43 82 -91 145
-162 210 -227 320 -281 480 -48 144 -60 161 -132 189 -70 27 -138 89 -203 185
-155 230 -204 439 -159 682 7 43 16 107 18 143 2 36 7 72 11 79 4 7 6 14 3 17
-2 3 -8 -3 -12 -13z"/>
<path d="M5096 4222 c-9 -28 -137 -137 -178 -152 -21 -8 -33 -17 -27 -21 15
-9 71 22 116 64 21 20 50 46 64 59 30 26 55 68 40 68 -5 0 -12 -8 -15 -18z"/>
<path d="M4669 4209 c18 -11 35 -18 38 -15 5 5 -50 36 -64 36 -4 0 7 -9 26
-21z"/>
<path d="M4688 4043 c6 -2 12 -11 12 -19 0 -8 11 -15 28 -15 15 -1 36 -2 47
-3 11 -1 26 3 33 8 6 5 27 12 45 16 28 7 29 8 6 9 -14 1 -34 -5 -44 -13 -23
-17 -96 -11 -108 9 -4 8 -13 15 -20 14 -9 0 -9 -2 1 -6z"/>
<path d="M3727 3895 c-44 -69 -45 -125 -2 -213 22 -46 39 -71 46 -66 7 4 7 9
1 13 -5 3 -24 33 -41 65 -38 73 -37 135 4 198 15 22 25 41 23 43 -2 2 -16 -16
-31 -40z"/>
<path d="M3801 3694 c-6 -14 -11 -37 -10 -52 1 -25 1 -25 9 5 4 18 13 39 19
47 7 8 8 17 3 20 -5 3 -14 -6 -21 -20z"/>
<path d="M3836 3695 c-3 -8 -1 -15 4 -15 9 0 17 -31 25 -100 3 -25 13 -84 22
-132 12 -63 14 -96 6 -120 -13 -44 8 -78 48 -78 44 0 59 31 59 125 -1 80 -22
250 -33 262 -6 6 -2 -31 14 -126 5 -30 9 -91 9 -136 0 -67 -3 -85 -18 -98 -23
-21 -41 -21 -63 -1 -14 13 -15 21 -6 50 8 26 6 55 -6 122 -10 48 -20 110 -23
137 -5 52 -22 125 -28 125 -2 0 -6 -7 -10 -15z"/>
<path d="M7255 3652 c4 -7 0 -21 -8 -30 -29 -33 -38 -143 -14 -170 29 -33 2
-147 -39 -162 -38 -15 -51 -3 -73 63 -11 34 -20 56 -20 49 -2 -28 32 -113 48
-121 28 -16 72 -1 83 28 6 14 16 41 24 59 9 21 10 31 3 26 -8 -4 -9 0 -4 15 4
15 1 29 -11 42 -26 28 -17 137 14 172 13 14 13 20 2 30 -10 9 -11 9 -5 -1z"/>
<path d="M5118 3598 c-21 -5 -38 -14 -38 -18 0 -4 17 -2 38 6 20 7 45 13 55
14 24 0 118 -40 113 -49 -6 -9 41 -8 48 2 3 4 3 5 0 2 -4 -2 -28 7 -54 20 -58
30 -112 37 -162 23z"/>
<path d="M5643 3587 c-23 -7 -45 -16 -50 -21 -5 -5 0 -6 11 -2 76 27 122 30
181 11 14 -4 13 -2 -5 9 -29 18 -78 19 -137 3z"/>
<path d="M5078 3543 c-9 -35 23 -57 69 -49 21 4 61 10 88 12 28 3 55 10 60 15
7 7 5 8 -5 5 -8 -3 -35 -8 -60 -10 -25 -3 -61 -8 -80 -11 -38 -7 -54 3 -62 40
-4 19 -4 19 -10 -2z"/>
<path d="M5355 3359 c-4 -6 -13 -8 -20 -5 -7 2 -21 -2 -32 -10 -17 -14 -17
-15 2 -6 11 5 25 8 31 5 6 -2 17 3 24 12 7 8 10 15 7 15 -3 0 -9 -5 -12 -11z"/>
<path d="M5254 3335 c-18 -14 -18 -14 4 -8 12 3 22 9 22 14 0 12 -3 11 -26 -6z"/>
<path d="M5220 3312 c0 -5 -12 -13 -27 -20 -22 -9 -23 -10 -4 -6 13 4 27 1 31
-6 5 -7 8 -2 8 14 0 14 -2 26 -4 26 -2 0 -4 -4 -4 -8z"/>
<path d="M5250 3232 c0 -4 9 -13 20 -19 16 -11 18 -10 14 1 -6 15 -34 30 -34
18z"/>
<path d="M5319 3192 c28 -20 103 -44 95 -31 -3 5 -11 9 -17 9 -7 0 -30 9 -52
20 -47 24 -59 25 -26 2z"/>
<path d="M4805 3059 c-19 -9 -19 -9 1 -6 12 3 29 0 38 -5 9 -5 16 -7 16 -4 0
13 -37 23 -55 15z"/>
<path d="M4870 3038 c0 -4 14 -8 30 -8 17 0 30 2 30 4 0 2 -13 6 -30 8 -16 3
-30 1 -30 -4z"/>
<path d="M4743 3017 c-18 -12 -35 -28 -38 -36 -4 -11 -3 -12 10 -1 8 7 15 9
15 4 0 -5 4 -4 8 1 4 6 20 21 36 33 37 28 11 27 -31 -1z"/>
<path d="M5100 3009 c-19 -5 -76 -11 -125 -13 -96 -3 -135 -17 -170 -57 -19
-23 -19 -23 15 2 49 35 86 46 150 45 30 -1 82 3 114 10 33 7 75 10 95 7 20 -3
34 -4 31 -1 -11 11 -77 15 -110 7z"/>
<path d="M4756 2868 c-20 -23 -36 -46 -36 -52 0 -6 10 4 21 22 12 17 24 32 28
32 3 0 12 9 19 20 20 32 6 23 -32 -22z"/>
<path d="M4751 2101 c6 -17 69 -68 68 -55 0 5 -17 22 -36 39 -20 16 -34 24
-32 16z"/>
<path d="M4830 2041 c0 -6 12 -17 28 -24 15 -6 35 -21 44 -32 10 -11 17 -15
17 -10 0 16 -25 45 -39 45 -8 0 -22 7 -32 17 -11 10 -18 12 -18 4z"/>
<path d="M4353 1774 c-37 -18 -65 -33 -61 -33 4 -1 33 11 65 25 31 15 63 27
70 28 18 3 25 13 9 13 -8 0 -45 -15 -83 -33z"/>
<path d="M4250 1733 c-8 -3 -17 -9 -20 -12 -24 -29 -166 -101 -199 -101 -27 0
-121 -38 -162 -65 -21 -14 -43 -25 -49 -25 -26 0 -81 -183 -64 -213 6 -10 9 2
10 36 1 29 11 75 24 104 19 44 31 57 83 88 68 41 130 65 168 65 14 0 29 4 35
8 5 5 25 15 44 22 19 7 56 28 83 47 26 18 51 33 56 33 6 0 13 5 16 10 7 11 -1
12 -25 3z"/>
<path d="M4429 1693 c-13 -9 -55 -49 -94 -88 -94 -97 -194 -179 -253 -209 -27
-13 -54 -32 -61 -40 -8 -9 -21 -16 -30 -16 -9 0 -21 -4 -27 -10 -5 -5 -42 -10
-82 -11 -40 -1 -70 -4 -67 -7 9 -9 139 -1 149 9 6 5 16 9 24 9 16 0 107 56
184 112 28 20 99 84 157 141 58 57 113 106 121 109 8 3 12 8 9 11 -3 4 -16 -1
-30 -10z"/>
<path d="M6900 1706 c0 -9 56 -35 86 -41 81 -15 213 -37 239 -40 17 -3 53 -9
80 -16 28 -6 60 -12 72 -13 12 0 25 -4 29 -8 4 -5 20 -8 35 -8 16 0 54 -10 86
-22 93 -36 194 -30 373 20 192 55 321 69 423 46 71 -15 206 -102 288 -185 46
-46 61 -70 81 -130 24 -74 24 -74 9 -181 -19 -132 -12 -152 51 -163 24 -4 57
-15 73 -26 17 -10 37 -22 45 -26 8 -3 17 -9 20 -13 8 -10 115 -40 143 -40 14
0 37 -4 50 -9 30 -12 111 -20 244 -26 113 -5 159 -20 225 -77 21 -17 40 -29
43 -27 7 7 -92 79 -132 95 -19 8 -80 17 -136 19 -133 6 -214 14 -244 26 -13 5
-37 9 -52 9 -40 0 -121 29 -158 56 -17 13 -38 24 -46 24 -7 0 -17 3 -21 8 -4
4 -26 12 -48 17 -61 16 -65 27 -47 152 15 107 15 109 -8 177 -13 38 -29 79
-37 90 -19 29 -105 116 -114 116 -4 0 -23 14 -42 30 -19 16 -39 30 -43 30 -5
0 -21 8 -35 19 -104 73 -272 73 -532 -1 -179 -50 -280 -56 -373 -20 -32 12
-70 22 -86 22 -15 0 -31 3 -35 8 -4 4 -17 8 -29 8 -12 1 -44 7 -72 13 -27 7
-63 13 -80 16 -26 3 -158 25 -239 40 -16 3 -42 13 -57 21 -16 8 -29 12 -29 10z"/>
<path d="M6889 1653 c-15 -39 -4 -125 18 -141 10 -7 54 -47 99 -90 44 -42 89
-84 100 -93 10 -9 24 -25 31 -35 7 -11 12 -13 12 -6 1 15 -119 133 -217 214
-27 22 -34 37 -39 77 -4 38 -2 57 11 76 9 14 12 25 6 25 -6 0 -15 -12 -21 -27z"/>
<path d="M3435 1320 c-3 -6 -39 -36 -78 -67 -40 -31 -97 -82 -127 -113 -134
-133 -173 -203 -205 -363 -31 -157 -4 -241 130 -407 29 -36 60 -80 69 -97 15
-29 39 -51 186 -169 42 -34 126 -72 114 -53 -3 5 3 12 13 16 30 10 74 56 62
64 -8 5 -8 21 1 60 7 30 10 65 7 79 -3 20 -5 18 -6 -10 -1 -19 -7 -57 -15 -85
-7 -27 -11 -54 -10 -60 2 -5 -12 -20 -31 -32 -49 -33 -54 -30 -243 123 -23 19
-57 59 -76 87 -18 29 -45 66 -61 82 -24 27 -63 82 -107 155 -57 94 -39 283 40
436 28 53 160 193 235 251 91 69 139 113 123 113 -8 0 -18 -5 -21 -10z"/>
<path d="M3481 1238 c-18 -43 -60 -236 -68 -313 -3 -38 18 -139 38 -177 5 -10
9 -28 10 -40 1 -22 1 -22 9 2 l8 25 1 -24 c1 -14 8 -32 16 -41 8 -9 16 -28 17
-43 1 -15 6 -23 11 -18 9 9 -7 56 -22 66 -6 3 -11 17 -11 30 0 13 -8 30 -18
37 -9 7 -24 36 -31 63 -18 61 -23 157 -8 148 6 -3 7 -1 3 5 -9 16 32 225 55
280 10 23 16 42 13 42 -2 0 -13 -19 -23 -42z"/>
<path d="M4067 913 c-4 -3 -7 -15 -7 -26 0 -10 -13 -36 -29 -56 -15 -20 -43
-65 -62 -101 -18 -36 -36 -67 -39 -70 -9 -8 -30 -60 -30 -73 1 -11 18 18 68
118 11 22 32 57 46 78 14 21 26 41 26 44 0 4 6 14 14 22 7 9 16 28 20 44 6 27
5 32 -7 20z"/>
<path d="M2926 898 c-11 -6 -35 -15 -55 -20 -20 -5 -43 -11 -51 -13 -8 -2 -22
-4 -31 -4 -21 -1 -129 -81 -128 -95 0 -6 3 -5 6 2 2 6 11 12 18 12 8 0 18 6
22 13 14 21 69 55 99 61 77 14 144 38 144 51 0 7 -2 6 -24 -7z"/>
<path d="M2950 879 c-13 -9 -12 -10 3 -5 20 6 20 7 2 -69 -8 -33 -14 -64 -14
-70 0 -20 18 23 24 56 3 19 8 49 11 67 6 33 -1 39 -26 21z"/>
<path d="M2610 760 c-14 -11 -31 -20 -37 -20 -7 0 -13 -4 -13 -10 0 -5 -6 -10
-12 -10 -7 0 -28 -14 -45 -30 -23 -21 -33 -38 -32 -57 l1 -28 7 26 c6 27 59
79 80 79 6 0 11 5 11 10 0 6 6 10 13 10 15 1 63 37 57 44 -3 2 -16 -4 -30 -14z"/>
<path d="M2367 740 c-47 -20 -87 -46 -129 -87 -100 -96 -109 -106 -134 -160
-29 -61 -124 -163 -152 -163 -10 0 -27 -8 -36 -19 -14 -15 -8 -14 36 7 73 35
119 85 166 182 12 25 47 68 78 95 31 28 64 58 73 69 40 45 164 102 206 93 14
-2 22 0 19 4 -10 16 -58 8 -127 -21z"/>
<path d="M2927 674 c-4 -37 -12 -52 -38 -75 -19 -16 -37 -29 -41 -29 -5 0 -8
-5 -8 -12 0 -6 7 -4 18 5 10 10 22 17 26 17 22 0 47 42 53 89 3 28 3 51 1 51
-3 0 -8 -21 -11 -46z"/>
<path d="M6866 608 c-8 -13 -16 -41 -17 -63 -2 -22 -12 -53 -23 -69 -11 -16
-14 -26 -8 -22 17 10 10 -44 -13 -104 -44 -116 -53 -138 -73 -180 -12 -25 -22
-52 -22 -61 0 -9 -3 -19 -7 -22 -9 -10 -43 -87 -38 -87 7 0 55 101 55 114 0 6
10 31 22 56 11 25 29 65 38 90 10 25 26 68 37 96 11 28 19 64 19 80 -1 16 3
38 9 49 6 11 12 38 14 60 1 22 9 47 18 57 9 10 14 21 10 24 -3 3 -12 -5 -21
-18z"/>
<path d="M2491 595 c0 -11 6 -29 14 -39 8 -11 15 -15 15 -10 0 6 -4 14 -9 20
-5 5 -11 18 -14 29 l-5 20 -1 -20z"/>
<path d="M4271 548 c-7 -18 -19 -46 -26 -63 -7 -16 -17 -43 -24 -59 -6 -16 -9
-31 -7 -34 3 -2 10 8 16 24 6 16 18 49 27 74 10 25 20 47 23 50 10 8 20 40 12
40 -4 0 -13 -15 -21 -32z"/>
<path d="M3660 523 c-13 -27 -27 -57 -32 -68 -10 -26 -17 -141 -8 -155 3 -5 7
23 7 62 2 71 5 83 44 162 10 22 18 41 16 43 -2 2 -14 -18 -27 -44z"/>
<path d="M2831 517 c-13 -21 -12 -21 5 -5 10 10 16 20 13 22 -3 3 -11 -5 -18
-17z"/>
<path d="M3850 510 c-14 -14 -33 -43 -43 -65 -10 -22 -28 -60 -40 -85 -11 -25
-32 -60 -46 -79 -19 -26 -26 -47 -27 -87 -1 -30 2 -51 6 -49 5 3 6 22 3 43 -4
30 1 45 25 78 32 43 72 124 72 144 0 15 39 70 64 91 10 8 17 20 15 25 -2 5
-15 -2 -29 -16z"/>
<path d="M2266 522 c-4 -7 -2 -12 4 -12 6 0 15 -12 21 -27 6 -15 24 -46 40
-68 43 -58 99 -144 99 -150 0 -4 11 -21 24 -38 13 -18 32 -51 41 -75 10 -23
21 -42 25 -42 8 0 -20 68 -40 100 -6 8 -24 38 -41 65 -29 47 -42 68 -114 177
-16 25 -35 54 -41 64 -7 13 -13 14 -18 6z"/>
<path d="M2520 516 c0 -2 7 -7 16 -10 8 -3 12 -2 9 4 -6 10 -25 14 -25 6z"/>
<path d="M4319 473 c0 -10 -2 -27 -5 -38 -2 -11 -6 -47 -8 -80 -5 -69 -12
-107 -31 -150 -18 -42 -29 -95 -15 -75 5 8 10 22 10 30 0 8 6 27 14 41 16 30
28 88 31 144 1 22 6 64 9 93 4 28 5 52 2 52 -3 0 -6 -8 -7 -17z"/>
<path d="M2546 406 c3 -32 14 -72 25 -90 22 -36 26 -17 4 22 -8 15 -19 50 -25
77 l-9 50 5 -59z"/>
<path d="M3053 352 c51 -91 120 -179 181 -232 16 -14 52 -46 79 -72 28 -27 54
-48 58 -48 4 0 -20 26 -53 58 -152 144 -208 211 -254 300 -9 17 -20 32 -24 32
-5 0 1 -17 13 -38z"/>
<path d="M4197 352 c-13 -68 -28 -112 -57 -165 -30 -57 -38 -79 -21 -62 19 20
61 109 67 143 4 21 13 51 20 69 8 18 10 34 5 37 -5 3 -11 -7 -14 -22z"/>
<path d="M2270 334 c12 -19 20 -38 16 -41 -3 -3 -2 -11 4 -18 17 -20 -17 -107
-55 -142 -25 -23 -35 -40 -34 -60 2 -27 2 -27 6 -3 2 14 20 39 38 55 24 20 39
46 49 80 7 28 16 59 21 70 5 16 5 17 -4 5 -10 -14 -16 -7 -12 13 2 10 -38 77
-46 77 -2 0 5 -16 17 -36z"/>
<path d="M4737 348 c6 -7 10 -20 10 -28 0 -8 12 -34 26 -57 15 -24 27 -50 27
-59 0 -9 8 -28 18 -42 10 -15 19 -40 21 -57 3 -30 27 -85 37 -85 2 0 -2 12
-10 28 -8 15 -15 41 -17 57 -2 17 -11 42 -21 57 -10 14 -18 35 -18 45 0 10 -5
24 -12 31 -7 7 -8 12 -3 12 5 0 -2 11 -15 25 -12 13 -24 34 -25 47 -4 37 -4
38 -16 38 -8 0 -8 -4 -2 -12z"/>
<path d="M2590 270 c8 -5 20 -10 25 -10 6 0 3 5 -5 10 -8 5 -19 10 -25 10 -5
0 -3 -5 5 -10z"/>
<path d="M2620 241 c0 -5 5 -13 10 -16 6 -3 10 -2 10 4 0 5 -4 13 -10 16 -5 3
-10 2 -10 -4z"/>
<path d="M2684 214 c-8 -20 -13 -41 -11 -47 2 -7 7 2 11 20 6 24 12 31 24 26
13 -4 14 -3 3 5 -7 5 -10 15 -7 21 4 6 4 11 1 11 -3 0 -13 -16 -21 -36z"/>
<path d="M2636 197 c3 -10 9 -15 12 -12 3 3 0 11 -7 18 -10 9 -11 8 -5 -6z"/>
<path d="M1648 160 c-9 -6 -29 -36 -44 -68 -14 -31 -31 -65 -36 -74 -5 -10 -5
-18 -1 -18 5 0 19 26 33 57 13 31 35 69 48 85 26 30 26 33 0 18z"/>
<path d="M1832 112 c-1 -28 5 -57 14 -72 l15 -25 -7 25 c-4 14 -8 44 -9 68 -3
59 -11 62 -13 4z"/>
<path d="M2673 82 c11 -45 23 -79 25 -77 6 5 -29 137 -39 149 -4 5 2 -28 14
-72z"/>
<path d="M1714 105 c1 -17 6 -37 12 -45 5 -8 15 -26 21 -40 l13 -25 -6 25 c-4
14 -13 32 -20 41 -8 9 -12 18 -9 21 3 3 1 16 -4 29 -9 23 -10 22 -7 -6z"/>
<path d="M3705 122 c15 -16 71 -21 234 -22 101 -1 147 2 155 11 8 9 6 10 -9 5
-11 -4 -81 -7 -155 -6 -145 1 -171 3 -210 15 -18 5 -22 4 -15 -3z"/>
<path d="M4245 93 c8 -17 23 -34 32 -37 24 -9 22 -5 -15 34 l-33 35 16 -32z"/>
<path d="M1960 85 c-11 -6 -27 -23 -35 -38 -8 -15 -10 -25 -5 -22 4 3 10 2 13
-2 2 -5 2 -2 0 5 -1 7 8 24 21 37 23 23 26 24 56 9 17 -9 33 -14 35 -12 3 2
-11 11 -29 19 -27 12 -39 13 -56 4z"/>
<path d="M2520 83 c1 -14 39 -88 40 -77 0 15 -29 84 -35 84 -3 0 -5 -3 -5 -7z"/>
<path d="M4320 41 c17 -13 112 -43 117 -37 2 2 -18 11 -45 19 -26 9 -57 19
-68 23 -16 5 -16 4 -4 -5z"/>
</g>
</svg>
